<?xml version="1.0" standalone="no"?>
<!DOCTYPE svg PUBLIC "-//W3C//DTD SVG 20010904//EN"
 "http://www.w3.org/TR/2001/REC-SVG-20010904/DTD/svg10.dtd">
<svg version="1.0" xmlns="http://www.w3.org/2000/svg"
 width="258.000000pt" height="258.000000pt" viewBox="0 0 258.000000 258.000000"
 preserveAspectRatio="xMidYMid meet">
<metadata>
Created by potrace 1.14, written by Peter Selinger 2001-2017
</metadata>
<g transform="translate(0.000000,258.000000) scale(0.100000,-0.100000)"
fill="#000000" stroke="none">
<path d="M9 1817 c-3 -64 -4 -444 -1 -457 2 -11 15 -16 45 -15 l42 0 3 72 3
72 157 0 c86 1 173 4 192 8 86 16 140 85 135 173 -4 65 -31 109 -86 140 -43
24 -51 24 -266 26 -223 3 -223 3 -224 -19z m435 -77 c53 -20 65 -99 20 -141
-23 -22 -31 -23 -192 -23 l-167 -1 -3 88 -3 87 160 0 c88 0 171 -4 185 -10z"/>
<path d="M818 1823 c-8 -10 -33 -49 -55 -88 -22 -38 -78 -135 -126 -215 -47
-80 -87 -152 -89 -160 -2 -10 9 -14 39 -15 52 -2 53 -1 87 58 l28 47 174 0
175 0 17 -32 c37 -68 64 -81 144 -69 4 1 -17 40 -46 89 -29 48 -94 157 -145
243 l-91 156 -49 2 c-35 1 -52 -4 -63 -16z m82 -103 c0 -4 23 -46 50 -94 28
-48 50 -88 50 -89 0 -1 -54 -2 -120 -3 -141 -1 -137 -10 -57 128 40 67 54 85
64 76 7 -6 13 -14 13 -18z"/>
<path d="M1266 1831 c-2 -3 -3 -114 -2 -246 l1 -240 42 -1 c23 0 44 4 46 10 1
6 2 46 2 89 l-1 77 74 0 c60 0 80 -4 105 -22 18 -12 34 -25 37 -28 5 -5 103
-86 134 -110 18 -14 146 -23 146 -10 0 4 -47 43 -105 87 l-105 80 52 7 c98 13
151 68 150 154 -2 63 -29 112 -77 136 -37 19 -60 21 -268 22 -125 1 -229 -1
-231 -5z m449 -93 c46 -21 46 -93 -1 -118 -19 -11 -69 -15 -193 -15 l-166 0
-1 65 c-1 36 1 68 3 73 7 12 329 8 358 -5z"/>
<path d="M2047 1626 c-69 -116 -134 -227 -145 -246 l-21 -35 51 0 c51 0 51 0
85 52 l34 53 173 0 174 0 28 -47 c15 -27 29 -50 31 -53 6 -7 103 -7 103 0 0 8
-266 458 -281 477 -7 8 -30 13 -60 12 l-48 -2 -124 -211z m246 8 c26 -44 47
-85 47 -90 0 -6 -52 -10 -120 -10 -66 0 -120 1 -120 2 0 1 28 50 61 109 54 94
63 104 73 88 7 -10 33 -54 59 -99z"/>
<path d="M1387 1249 c-63 -10 -131 -44 -152 -75 -20 -31 -23 -90 -6 -131 8
-21 26 -36 59 -51 57 -25 81 -30 197 -37 168 -10 208 -22 203 -57 -2 -12 -16
-30 -31 -42 -25 -18 -44 -21 -145 -23 -104 -1 -163 6 -263 32 -23 6 -28 3 -38
-26 -6 -17 -11 -36 -11 -40 0 -10 84 -35 150 -45 59 -9 215 -10 265 -1 104 19
165 76 165 154 0 75 -66 118 -193 128 -29 2 -87 7 -131 10 -102 7 -146 25
-146 59 0 66 111 82 361 51 l56 -7 7 32 c3 18 6 36 6 40 0 23 -260 44 -353 29z"/>
<path d="M9 1241 c-5 -27 -3 -475 2 -483 5 -7 68 -9 185 -5 195 5 259 18 326
66 60 43 83 93 83 182 0 66 -4 81 -28 117 -62 95 -154 124 -399 127 -93 1
-168 -1 -169 -4z m416 -112 c82 -40 112 -110 80 -185 -34 -81 -95 -102 -312
-107 l-92 -2 -3 110 c-2 60 -2 134 0 164 l3 54 138 -5 c121 -4 144 -7 186 -29z"/>
<path d="M865 1242 c-3 -3 -5 -115 -5 -249 l0 -243 45 0 45 0 -2 247 -3 247
-37 1 c-21 2 -40 0 -43 -3z"/>
<path d="M2030 997 l0 -247 273 2 272 3 0 40 0 40 -190 2 c-104 1 -207 2 -227
2 l-38 1 0 60 c0 50 3 60 18 61 9 0 99 0 200 1 l182 0 0 44 c0 24 -3 43 -7 43
-5 -1 -95 -1 -200 0 l-193 1 0 55 0 55 220 0 c121 0 220 3 221 8 5 44 3 65 -6
70 -5 4 -126 7 -267 7 l-258 0 0 -248z"/>
</g>
</svg>
